<?xml version="1.0" encoding="utf-8" standalone="no"?>
<!DOCTYPE svg PUBLIC "-//W3C//DTD SVG 1.1//EN"
  "http://www.w3.org/Graphics/SVG/1.1/DTD/svg11.dtd">
<svg xmlns:xlink="http://www.w3.org/1999/xlink" width="648pt" height="288pt" viewBox="0 0 648 288" xmlns="http://www.w3.org/2000/svg" version="1.1">
 <metadata>
  <rdf:RDF xmlns:dc="http://purl.org/dc/elements/1.1/" xmlns:cc="http://creativecommons.org/ns#" xmlns:rdf="http://www.w3.org/1999/02/22-rdf-syntax-ns#">
   <cc:Work>
    <dc:type rdf:resource="http://purl.org/dc/dcmitype/StillImage"/>
    <dc:date>2026-02-04T12:26:56.274290</dc:date>
    <dc:format>image/svg+xml</dc:format>
    <dc:creator>
     <cc:Agent>
      <dc:title>Matplotlib v3.10.8, https://matplotlib.org/</dc:title>
     </cc:Agent>
    </dc:creator>
   </cc:Work>
  </rdf:RDF>
 </metadata>
 <defs>
  <style type="text/css">*{stroke-linejoin: round; stroke-linecap: butt}</style>
 </defs>
 <g id="figure_1">
  <g id="patch_1">
   <path d="M 0 288 
L 648 288 
L 648 0 
L 0 0 
z
" style="fill: #ffffff"/>
  </g>
  <g id="axes_1">
   <g id="patch_2">
    <path d="M 36.83 248.2 
L 632.800576 248.2 
L 632.800576 25.8 
L 36.83 25.8 
z
" style="fill: #ffffff"/>
   </g>
   <g id="PathCollection_1">
    <defs>
     <path id="m7b19829bb7" d="M 0 1.870829 
L 0 -1.870829 
" style="stroke: #000000; stroke-width: 1.5"/>
    </defs>
    <g clip-path="url(#p1cea7419b6)">
     <use xlink:href="#m7b19829bb7" x="63.919572" y="35.909091" style="stroke: #000000; stroke-width: 1.5"/>
     <use xlink:href="#m7b19829bb7" x="73.830391" y="137" style="stroke: #000000; stroke-width: 1.5"/>
     <use xlink:href="#m7b19829bb7" x="85.723373" y="238.090909" style="stroke: #000000; stroke-width: 1.5"/>
     <use xlink:href="#m7b19829bb7" x="160.384876" y="35.909091" style="stroke: #000000; stroke-width: 1.5"/>
     <use xlink:href="#m7b19829bb7" x="180.206513" y="137" style="stroke: #000000; stroke-width: 1.5"/>
     <use xlink:href="#m7b19829bb7" x="203.992479" y="238.090909" style="stroke: #000000; stroke-width: 1.5"/>
     <use xlink:href="#m7b19829bb7" x="256.85018" y="35.909091" style="stroke: #000000; stroke-width: 1.5"/>
     <use xlink:href="#m7b19829bb7" x="286.582636" y="137" style="stroke: #000000; stroke-width: 1.5"/>
     <use xlink:href="#m7b19829bb7" x="322.261584" y="238.090909" style="stroke: #000000; stroke-width: 1.5"/>
     <use xlink:href="#m7b19829bb7" x="353.315484" y="35.909091" style="stroke: #000000; stroke-width: 1.5"/>
     <use xlink:href="#m7b19829bb7" x="392.958759" y="137" style="stroke: #000000; stroke-width: 1.5"/>
     <use xlink:href="#m7b19829bb7" x="440.53069" y="238.090909" style="stroke: #000000; stroke-width: 1.5"/>
     <use xlink:href="#m7b19829bb7" x="449.780787" y="35.909091" style="stroke: #000000; stroke-width: 1.5"/>
     <use xlink:href="#m7b19829bb7" x="499.334882" y="137" style="stroke: #000000; stroke-width: 1.5"/>
     <use xlink:href="#m7b19829bb7" x="546.246091" y="35.909091" style="stroke: #000000; stroke-width: 1.5"/>
     <use xlink:href="#m7b19829bb7" x="558.799795" y="238.090909" style="stroke: #000000; stroke-width: 1.5"/>
     <use xlink:href="#m7b19829bb7" x="605.711005" y="137" style="stroke: #000000; stroke-width: 1.5"/>
    </g>
   </g>
   <g id="matplotlib.axis_1">
    <g id="xtick_1">
     <g id="line2d_1">
      <path d="M 100.259241 248.2 
L 100.259241 25.8 
" clip-path="url(#p1cea7419b6)" style="fill: none; stroke-dasharray: 2.96,1.28; stroke-dashoffset: 0; stroke: #b0b0b0; stroke-opacity: 0.3; stroke-width: 0.8"/>
     </g>
     <g id="line2d_2">
      <defs>
       <path id="m6774db26c4" d="M 0 0 
L 0 3.5 
" style="stroke: #000000; stroke-width: 0.8"/>
      </defs>
      <g>
       <use xlink:href="#m6774db26c4" x="100.259241" y="248.2" style="stroke: #000000; stroke-width: 0.8"/>
      </g>
     </g>
     <g id="text_1">
      <!-- 20 -->
      <g transform="translate(94.708772 261.817813) scale(0.09 -0.09)">
       <defs>
        <path id="SFProText-Regular-32" d="M 503 0 
L 3422 0 
L 3422 506 
L 1284 506 
L 1284 556 
L 2309 1616 
C 3125 2456 3347 2831 3347 3347 
L 3347 3353 
C 3347 4081 2744 4616 1956 4616 
C 1094 4616 475 4041 472 3241 
L 478 3238 
L 1016 3234 
L 1019 3241 
C 1019 3772 1378 4125 1919 4125 
C 2450 4125 2772 3769 2772 3294 
L 2772 3288 
C 2772 2894 2603 2659 2028 2038 
L 503 388 
L 503 0 
z
" transform="scale(0.015625)"/>
        <path id="SFProText-Regular-30" d="M 2013 -106 
C 3009 -106 3609 803 3609 2253 
L 3609 2259 
C 3609 3709 3009 4616 2013 4616 
C 1016 4616 422 3709 422 2259 
L 422 2253 
C 422 803 1016 -106 2013 -106 
z
M 2013 384 
C 1366 384 988 1103 988 2253 
L 988 2259 
C 988 3409 1366 4122 2013 4122 
C 2659 4122 3044 3409 3044 2259 
L 3044 2253 
C 3044 1103 2659 384 2013 384 
z
" transform="scale(0.015625)"/>
       </defs>
       <use xlink:href="#SFProText-Regular-32"/>
       <use xlink:href="#SFProText-Regular-30" transform="translate(60.351562 0)"/>
      </g>
     </g>
    </g>
    <g id="xtick_2">
     <g id="line2d_3">
      <path d="M 232.403493 248.2 
L 232.403493 25.8 
" clip-path="url(#p1cea7419b6)" style="fill: none; stroke-dasharray: 2.96,1.28; stroke-dashoffset: 0; stroke: #b0b0b0; stroke-opacity: 0.3; stroke-width: 0.8"/>
     </g>
     <g id="line2d_4">
      <g>
       <use xlink:href="#m6774db26c4" x="232.403493" y="248.2" style="stroke: #000000; stroke-width: 0.8"/>
      </g>
     </g>
     <g id="text_2">
      <!-- 40 -->
      <g transform="translate(226.673024 261.817813) scale(0.09 -0.09)">
       <defs>
        <path id="SFProText-Regular-34" d="M 2563 0 
L 3113 0 
L 3113 934 
L 3753 934 
L 3753 1438 
L 3113 1438 
L 3113 4509 
L 2297 4509 
C 1666 3569 975 2469 366 1447 
L 366 934 
L 2563 934 
L 2563 0 
z
M 941 1434 
L 941 1472 
C 1431 2300 2022 3231 2528 3988 
L 2566 3988 
L 2566 1434 
L 941 1434 
z
" transform="scale(0.015625)"/>
       </defs>
       <use xlink:href="#SFProText-Regular-34"/>
       <use xlink:href="#SFProText-Regular-30" transform="translate(64.355469 0)"/>
      </g>
     </g>
    </g>
    <g id="xtick_3">
     <g id="line2d_5">
      <path d="M 364.547745 248.2 
L 364.547745 25.8 
" clip-path="url(#p1cea7419b6)" style="fill: none; stroke-dasharray: 2.96,1.28; stroke-dashoffset: 0; stroke: #b0b0b0; stroke-opacity: 0.3; stroke-width: 0.8"/>
     </g>
     <g id="line2d_6">
      <g>
       <use xlink:href="#m6774db26c4" x="364.547745" y="248.2" style="stroke: #000000; stroke-width: 0.8"/>
      </g>
     </g>
     <g id="text_3">
      <!-- 60 -->
      <g transform="translate(358.848214 261.817813) scale(0.09 -0.09)">
       <defs>
        <path id="SFProText-Regular-36" d="M 2097 -106 
C 3006 -106 3675 547 3675 1447 
L 3675 1453 
C 3675 2319 3044 2963 2197 2963 
C 1588 2963 1163 2634 997 2266 
L 938 2266 
C 938 2300 938 2338 941 2372 
C 975 3313 1309 4113 2128 4113 
C 2584 4113 2900 3878 3038 3500 
L 3050 3466 
L 3616 3466 
L 3606 3506 
C 3453 4172 2891 4616 2134 4616 
C 1041 4616 400 3716 400 2178 
L 400 2172 
C 400 475 1272 -106 2097 -106 
z
M 1072 1453 
L 1072 1456 
C 1072 2044 1516 2472 2100 2472 
C 2684 2472 3109 2041 3109 1441 
L 3109 1434 
C 3109 850 2656 391 2091 391 
C 1519 391 1072 859 1072 1453 
z
" transform="scale(0.015625)"/>
       </defs>
       <use xlink:href="#SFProText-Regular-36"/>
       <use xlink:href="#SFProText-Regular-30" transform="translate(63.671875 0)"/>
      </g>
     </g>
    </g>
    <g id="xtick_4">
     <g id="line2d_7">
      <path d="M 496.691997 248.2 
L 496.691997 25.8 
" clip-path="url(#p1cea7419b6)" style="fill: none; stroke-dasharray: 2.96,1.28; stroke-dashoffset: 0; stroke: #b0b0b0; stroke-opacity: 0.3; stroke-width: 0.8"/>
     </g>
     <g id="line2d_8">
      <g>
       <use xlink:href="#m6774db26c4" x="496.691997" y="248.2" style="stroke: #000000; stroke-width: 0.8"/>
      </g>
     </g>
     <g id="text_4">
      <!-- 80 -->
      <g transform="translate(490.983325 261.817813) scale(0.09 -0.09)">
       <defs>
        <path id="SFProText-Regular-38" d="M 2044 -75 
C 3000 -75 3681 463 3681 1219 
L 3681 1225 
C 3681 1781 3291 2244 2713 2378 
L 2713 2391 
C 3206 2544 3519 2919 3519 3394 
L 3519 3400 
C 3519 4081 2897 4584 2044 4584 
C 1191 4584 569 4081 569 3400 
L 569 3394 
C 569 2919 881 2544 1375 2391 
L 1375 2378 
C 797 2244 406 1781 406 1225 
L 406 1219 
C 406 463 1088 -75 2044 -75 
z
M 2044 2600 
C 1500 2600 1128 2909 1128 3347 
L 1128 3353 
C 1128 3791 1500 4100 2044 4100 
C 2588 4100 2959 3791 2959 3353 
L 2959 3347 
C 2959 2909 2588 2600 2044 2600 
z
M 2044 416 
C 1422 416 978 766 978 1253 
L 978 1259 
C 978 1753 1419 2106 2044 2106 
C 2669 2106 3109 1753 3109 1259 
L 3109 1253 
C 3109 766 2666 416 2044 416 
z
" transform="scale(0.015625)"/>
       </defs>
       <use xlink:href="#SFProText-Regular-38"/>
       <use xlink:href="#SFProText-Regular-30" transform="translate(63.867188 0)"/>
      </g>
     </g>
    </g>
    <g id="xtick_5">
     <g id="line2d_9">
      <path d="M 628.836249 248.2 
L 628.836249 25.8 
" clip-path="url(#p1cea7419b6)" style="fill: none; stroke-dasharray: 2.96,1.28; stroke-dashoffset: 0; stroke: #b0b0b0; stroke-opacity: 0.3; stroke-width: 0.8"/>
     </g>
     <g id="line2d_10">
      <g>
       <use xlink:href="#m6774db26c4" x="628.836249" y="248.2" style="stroke: #000000; stroke-width: 0.8"/>
      </g>
     </g>
     <g id="text_5">
      <!-- 100 -->
      <g transform="translate(621.080077 261.817813) scale(0.09 -0.09)">
       <defs>
        <path id="SFProText-Regular-31" d="M 1606 0 
L 2169 0 
L 2169 4509 
L 1609 4509 
L 409 3647 
L 409 3053 
L 1556 3884 
L 1606 3884 
L 1606 0 
z
" transform="scale(0.015625)"/>
       </defs>
       <use xlink:href="#SFProText-Regular-31"/>
       <use xlink:href="#SFProText-Regular-30" transform="translate(46.386719 0)"/>
       <use xlink:href="#SFProText-Regular-30" transform="translate(109.375 0)"/>
      </g>
     </g>
    </g>
    <g id="text_6">
     <!-- Time (ms) -->
     <g transform="translate(311.011382 274.851406) scale(0.1 -0.1)">
      <defs>
       <path id="SFProText-Regular-54" d="M 1747 0 
L 2309 0 
L 2309 4003 
L 3763 4003 
L 3763 4509 
L 294 4509 
L 294 4003 
L 1747 4003 
L 1747 0 
z
" transform="scale(0.015625)"/>
       <path id="SFProText-Regular-69" d="M 794 4019 
C 1000 4019 1169 4188 1169 4394 
C 1169 4600 1000 4769 794 4769 
C 588 4769 419 4600 419 4394 
C 419 4188 588 4019 794 4019 
z
M 519 0 
L 1063 0 
L 1063 3369 
L 519 3369 
L 519 0 
z
" transform="scale(0.015625)"/>
       <path id="SFProText-Regular-6d" d="M 506 0 
L 1050 0 
L 1050 2088 
C 1050 2563 1384 2947 1825 2947 
C 2250 2947 2525 2688 2525 2288 
L 2525 0 
L 3069 0 
L 3069 2166 
C 3069 2594 3378 2947 3847 2947 
C 4322 2947 4550 2700 4550 2203 
L 4550 0 
L 5094 0 
L 5094 2328 
C 5094 3034 4709 3428 4022 3428 
C 3556 3428 3172 3194 2991 2838 
L 2941 2838 
C 2784 3188 2466 3428 2009 3428 
C 1569 3428 1250 3219 1100 2856 
L 1050 2856 
L 1050 3369 
L 506 3369 
L 506 0 
z
" transform="scale(0.015625)"/>
       <path id="SFProText-Regular-65" d="M 1881 -59 
C 2675 -59 3156 391 3272 847 
L 3278 872 
L 2734 872 
L 2722 844 
C 2631 641 2350 425 1894 425 
C 1294 425 909 831 894 1528 
L 3319 1528 
L 3319 1741 
C 3319 2747 2763 3428 1847 3428 
C 931 3428 338 2716 338 1675 
L 338 1672 
C 338 616 919 -59 1881 -59 
z
M 1844 2944 
C 2341 2944 2709 2628 2766 1963 
L 903 1963 
C 963 2603 1344 2944 1844 2944 
z
" transform="scale(0.015625)"/>
       <path id="SFProText-Regular-20" transform="scale(0.015625)"/>
       <path id="SFProText-Regular-28" d="M 1644 -1125 
L 2100 -1125 
C 1647 -547 1309 697 1309 1791 
C 1309 2875 1647 4128 2100 4706 
L 1644 4706 
C 1031 3897 756 2950 756 1791 
C 756 628 1034 -316 1644 -1125 
z
" transform="scale(0.015625)"/>
       <path id="SFProText-Regular-73" d="M 1663 -59 
C 2428 -59 3013 356 3013 956 
L 3013 963 
C 3013 1444 2706 1719 2072 1872 
L 1553 1997 
C 1156 2094 988 2238 988 2466 
L 988 2472 
C 988 2769 1281 2975 1681 2975 
C 2088 2975 2350 2791 2422 2525 
L 2956 2525 
C 2881 3075 2391 3428 1684 3428 
C 969 3428 431 3006 431 2447 
L 431 2444 
C 431 1959 716 1684 1347 1534 
L 1869 1409 
C 2284 1309 2456 1150 2456 922 
L 2456 916 
C 2456 609 2134 394 1681 394 
C 1250 394 981 578 891 859 
L 334 859 
C 397 303 913 -59 1663 -59 
z
" transform="scale(0.015625)"/>
       <path id="SFProText-Regular-29" d="M 800 -1125 
C 1409 -316 1688 628 1688 1791 
C 1688 2950 1413 3897 800 4706 
L 344 4706 
C 797 4128 1134 2875 1134 1791 
C 1134 697 797 -547 344 -1125 
L 800 -1125 
z
" transform="scale(0.015625)"/>
      </defs>
      <use xlink:href="#SFProText-Regular-54"/>
      <use xlink:href="#SFProText-Regular-69" transform="translate(63.378906 0)"/>
      <use xlink:href="#SFProText-Regular-6d" transform="translate(88.085938 0)"/>
      <use xlink:href="#SFProText-Regular-65" transform="translate(175.097656 0)"/>
      <use xlink:href="#SFProText-Regular-20" transform="translate(232.226562 0)"/>
      <use xlink:href="#SFProText-Regular-28" transform="translate(260.351562 0)"/>
      <use xlink:href="#SFProText-Regular-6d" transform="translate(298.535156 0)"/>
      <use xlink:href="#SFProText-Regular-73" transform="translate(385.546875 0)"/>
      <use xlink:href="#SFProText-Regular-29" transform="translate(437.890625 0)"/>
     </g>
    </g>
   </g>
   <g id="matplotlib.axis_2">
    <g id="ytick_1">
     <g id="line2d_11">
      <defs>
       <path id="mdb2f039321" d="M 0 0 
L -3.5 0 
" style="stroke: #000000; stroke-width: 0.8"/>
      </defs>
      <g>
       <use xlink:href="#mdb2f039321" x="36.83" y="238.090909" style="stroke: #000000; stroke-width: 0.8"/>
      </g>
     </g>
     <g id="text_7">
      <!-- 0 -->
      <g transform="translate(24.161406 241.399815) scale(0.09 -0.09)">
       <use xlink:href="#SFProText-Regular-30"/>
      </g>
     </g>
    </g>
    <g id="ytick_2">
     <g id="line2d_12">
      <g>
       <use xlink:href="#mdb2f039321" x="36.83" y="137" style="stroke: #000000; stroke-width: 0.8"/>
      </g>
     </g>
     <g id="text_8">
      <!-- 1 -->
      <g transform="translate(25.654844 140.308906) scale(0.09 -0.09)">
       <use xlink:href="#SFProText-Regular-31"/>
      </g>
     </g>
    </g>
    <g id="ytick_3">
     <g id="line2d_13">
      <g>
       <use xlink:href="#mdb2f039321" x="36.83" y="35.909091" style="stroke: #000000; stroke-width: 0.8"/>
      </g>
     </g>
     <g id="text_9">
      <!-- 2 -->
      <g transform="translate(24.397656 39.217997) scale(0.09 -0.09)">
       <use xlink:href="#SFProText-Regular-32"/>
      </g>
     </g>
    </g>
    <g id="text_10">
     <!-- Neuron Index -->
     <g transform="translate(18.403594 168.471094) rotate(-90) scale(0.1 -0.1)">
      <defs>
       <path id="SFProText-Regular-4e" d="M 575 0 
L 1131 0 
L 1131 3497 
L 1181 3497 
L 3628 0 
L 4175 0 
L 4175 4509 
L 3619 4509 
L 3619 1000 
L 3569 1000 
L 1122 4509 
L 575 4509 
L 575 0 
z
" transform="scale(0.015625)"/>
       <path id="SFProText-Regular-75" d="M 1634 -59 
C 2128 -59 2469 144 2634 503 
L 2684 503 
L 2684 0 
L 3228 0 
L 3228 3369 
L 2684 3369 
L 2684 1375 
C 2684 784 2369 422 1775 422 
C 1238 422 1019 713 1019 1319 
L 1019 3369 
L 475 3369 
L 475 1188 
C 475 391 869 -59 1634 -59 
z
" transform="scale(0.015625)"/>
       <path id="SFProText-Regular-72" d="M 506 0 
L 1050 0 
L 1050 2088 
C 1050 2581 1419 2909 1938 2909 
C 2056 2909 2159 2897 2272 2878 
L 2272 3406 
C 2219 3416 2103 3428 2000 3428 
C 1544 3428 1228 3222 1100 2869 
L 1050 2869 
L 1050 3369 
L 506 3369 
L 506 0 
z
" transform="scale(0.015625)"/>
       <path id="SFProText-Regular-6f" d="M 1891 -59 
C 2850 -59 3444 603 3444 1681 
L 3444 1688 
C 3444 2769 2850 3428 1891 3428 
C 931 3428 338 2769 338 1688 
L 338 1681 
C 338 603 931 -59 1891 -59 
z
M 1891 422 
C 1253 422 894 888 894 1681 
L 894 1688 
C 894 2484 1253 2947 1891 2947 
C 2528 2947 2888 2484 2888 1688 
L 2888 1681 
C 2888 888 2528 422 1891 422 
z
" transform="scale(0.015625)"/>
       <path id="SFProText-Regular-6e" d="M 506 0 
L 1050 0 
L 1050 1994 
C 1050 2584 1391 2947 1928 2947 
C 2466 2947 2716 2656 2716 2050 
L 2716 0 
L 3259 0 
L 3259 2181 
C 3259 2981 2838 3428 2081 3428 
C 1584 3428 1269 3219 1100 2863 
L 1050 2863 
L 1050 3369 
L 506 3369 
L 506 0 
z
" transform="scale(0.015625)"/>
       <path id="SFProText-Regular-49" d="M 575 0 
L 1138 0 
L 1138 4509 
L 575 4509 
L 575 0 
z
" transform="scale(0.015625)"/>
       <path id="SFProText-Regular-64" d="M 1750 -59 
C 2219 -59 2594 163 2800 538 
L 2850 538 
L 2850 0 
L 3394 0 
L 3394 4706 
L 2850 4706 
L 2850 2838 
L 2800 2838 
C 2616 3197 2213 3428 1750 3428 
C 894 3428 338 2744 338 1688 
L 338 1681 
C 338 631 897 -59 1750 -59 
z
M 1875 422 
C 1259 422 894 897 894 1681 
L 894 1688 
C 894 2472 1259 2947 1875 2947 
C 2488 2947 2863 2466 2863 1688 
L 2863 1681 
C 2863 903 2488 422 1875 422 
z
" transform="scale(0.015625)"/>
       <path id="SFProText-Regular-78" d="M 238 0 
L 847 0 
L 1647 1272 
L 1697 1272 
L 2494 0 
L 3131 0 
L 1972 1706 
L 3116 3369 
L 2506 3369 
L 1716 2116 
L 1666 2116 
L 866 3369 
L 225 3369 
L 1391 1684 
L 238 0 
z
" transform="scale(0.015625)"/>
      </defs>
      <use xlink:href="#SFProText-Regular-4e"/>
      <use xlink:href="#SFProText-Regular-65" transform="translate(74.21875 0)"/>
      <use xlink:href="#SFProText-Regular-75" transform="translate(131.347656 0)"/>
      <use xlink:href="#SFProText-Regular-72" transform="translate(189.697266 0)"/>
      <use xlink:href="#SFProText-Regular-6f" transform="translate(227.783203 0)"/>
      <use xlink:href="#SFProText-Regular-6e" transform="translate(286.865234 0)"/>
      <use xlink:href="#SFProText-Regular-20" transform="translate(345.214844 0)"/>
      <use xlink:href="#SFProText-Regular-49" transform="translate(373.339844 0)"/>
      <use xlink:href="#SFProText-Regular-6e" transform="translate(400.097656 0)"/>
      <use xlink:href="#SFProText-Regular-64" transform="translate(458.447266 0)"/>
      <use xlink:href="#SFProText-Regular-65" transform="translate(519.873047 0)"/>
      <use xlink:href="#SFProText-Regular-78" transform="translate(577.001953 0)"/>
     </g>
    </g>
   </g>
   <g id="patch_3">
    <path d="M 36.83 248.2 
L 36.83 25.8 
" style="fill: none; stroke: #000000; stroke-width: 0.8; stroke-linejoin: miter; stroke-linecap: square"/>
   </g>
   <g id="patch_4">
    <path d="M 632.800576 248.2 
L 632.800576 25.8 
" style="fill: none; stroke: #000000; stroke-width: 0.8; stroke-linejoin: miter; stroke-linecap: square"/>
   </g>
   <g id="patch_5">
    <path d="M 36.83 248.2 
L 632.800576 248.2 
" style="fill: none; stroke: #000000; stroke-width: 0.8; stroke-linejoin: miter; stroke-linecap: square"/>
   </g>
   <g id="patch_6">
    <path d="M 36.83 25.8 
L 632.800576 25.8 
" style="fill: none; stroke: #000000; stroke-width: 0.8; stroke-linejoin: miter; stroke-linecap: square"/>
   </g>
   <g id="text_11">
    <!-- Spike Raster Plot (Spiking Neural Network) -->
    <g transform="translate(213.671538 19.8) scale(0.12 -0.12)">
     <defs>
      <path id="SFProText-Regular-53" d="M 2053 -106 
C 3059 -106 3719 419 3719 1263 
L 3719 1266 
C 3719 1916 3347 2294 2406 2503 
L 1906 2616 
C 1294 2750 1047 2994 1047 3353 
L 1047 3356 
C 1047 3828 1481 4094 2044 4097 
C 2631 4100 3006 3806 3069 3409 
L 3075 3369 
L 3638 3369 
L 3634 3413 
C 3588 4084 2959 4616 2059 4616 
C 1128 4616 475 4088 472 3341 
L 472 3338 
C 472 2684 863 2269 1766 2069 
L 2266 1959 
C 2884 1822 3144 1566 3144 1191 
L 3144 1188 
C 3144 728 2697 413 2084 413 
C 1434 413 966 697 925 1147 
L 922 1181 
L 359 1181 
L 363 1147 
C 428 413 1066 -106 2053 -106 
z
" transform="scale(0.015625)"/>
      <path id="SFProText-Regular-70" d="M 506 -1125 
L 1050 -1125 
L 1050 531 
L 1100 531 
C 1284 172 1688 -59 2150 -59 
C 3006 -59 3563 625 3563 1681 
L 3563 1688 
C 3563 2738 3003 3428 2150 3428 
C 1681 3428 1306 3206 1100 2831 
L 1050 2831 
L 1050 3369 
L 506 3369 
L 506 -1125 
z
M 2025 422 
C 1413 422 1038 903 1038 1681 
L 1038 1688 
C 1038 2466 1413 2947 2025 2947 
C 2641 2947 3006 2472 3006 1688 
L 3006 1681 
C 3006 897 2641 422 2025 422 
z
" transform="scale(0.015625)"/>
      <path id="SFProText-Regular-6b" d="M 538 0 
L 1081 0 
L 1081 1278 
L 1397 1584 
L 2659 0 
L 3344 0 
L 1778 1953 
L 3247 3369 
L 2588 3369 
L 1131 1897 
L 1081 1897 
L 1081 4706 
L 538 4706 
L 538 0 
z
" transform="scale(0.015625)"/>
      <path id="SFProText-Regular-52" d="M 575 0 
L 1138 0 
L 1138 1784 
L 2247 1784 
L 3213 0 
L 3872 0 
L 2828 1872 
C 3394 2050 3734 2538 3734 3163 
L 3734 3169 
C 3734 3978 3166 4509 2297 4509 
L 575 4509 
L 575 0 
z
M 1138 2284 
L 1138 4009 
L 2222 4009 
C 2803 4009 3153 3688 3153 3150 
L 3153 3144 
C 3153 2594 2825 2284 2247 2284 
L 1138 2284 
z
" transform="scale(0.015625)"/>
      <path id="SFProText-Regular-61" d="M 1431 -59 
C 1884 -59 2238 138 2450 497 
L 2500 497 
L 2500 0 
L 3044 0 
L 3044 2306 
C 3044 3006 2584 3428 1763 3428 
C 1044 3428 531 3072 444 2544 
L 441 2525 
L 984 2525 
L 988 2534 
C 1075 2797 1341 2947 1744 2947 
C 2247 2947 2500 2722 2500 2306 
L 2500 2000 
L 1534 1941 
C 750 1894 306 1547 306 947 
L 306 941 
C 306 328 791 -59 1431 -59 
z
M 863 953 
L 863 959 
C 863 1294 1088 1475 1600 1506 
L 2500 1563 
L 2500 1256 
C 2500 775 2097 413 1544 413 
C 1153 413 863 613 863 953 
z
" transform="scale(0.015625)"/>
      <path id="SFProText-Regular-74" d="M 1703 -25 
C 1809 -25 1913 -13 2019 6 
L 2019 469 
C 1919 459 1866 456 1769 456 
C 1419 456 1281 616 1281 1013 
L 1281 2919 
L 2019 2919 
L 2019 3369 
L 1281 3369 
L 1281 4241 
L 719 4241 
L 719 3369 
L 188 3369 
L 188 2919 
L 719 2919 
L 719 875 
C 719 231 1009 -25 1703 -25 
z
" transform="scale(0.015625)"/>
      <path id="SFProText-Regular-50" d="M 575 0 
L 1138 0 
L 1138 1609 
L 2275 1609 
C 3122 1609 3722 2206 3722 3063 
L 3722 3069 
C 3722 3925 3122 4509 2275 4509 
L 575 4509 
L 575 0 
z
M 2131 4009 
C 2775 4009 3147 3656 3147 3063 
L 3147 3056 
C 3147 2463 2775 2109 2131 2109 
L 1138 2109 
L 1138 4009 
L 2131 4009 
z
" transform="scale(0.015625)"/>
      <path id="SFProText-Regular-6c" d="M 538 0 
L 1081 0 
L 1081 4706 
L 538 4706 
L 538 0 
z
" transform="scale(0.015625)"/>
      <path id="SFProText-Regular-67" d="M 1894 -1188 
C 2813 -1188 3394 -706 3394 47 
L 3394 3369 
L 2850 3369 
L 2850 2813 
L 2813 2813 
C 2606 3194 2238 3428 1763 3428 
C 881 3428 338 2744 338 1800 
L 338 1794 
C 338 850 878 175 1750 175 
C 2213 175 2594 384 2806 756 
L 2856 756 
L 2856 75 
C 2856 -422 2497 -706 1894 -706 
C 1409 -706 1109 -525 1050 -269 
L 1047 -266 
L 484 -266 
L 478 -269 
C 563 -822 1081 -1188 1894 -1188 
z
M 1869 656 
C 1244 656 894 1125 894 1794 
L 894 1800 
C 894 2469 1244 2947 1869 2947 
C 2491 2947 2869 2469 2869 1800 
L 2869 1794 
C 2869 1125 2494 656 1869 656 
z
" transform="scale(0.015625)"/>
      <path id="SFProText-Regular-77" d="M 1156 0 
L 1700 0 
L 2450 2606 
L 2500 2606 
L 3253 0 
L 3800 0 
L 4744 3369 
L 4203 3369 
L 3541 675 
L 3491 675 
L 2738 3369 
L 2222 3369 
L 1469 675 
L 1419 675 
L 756 3369 
L 213 3369 
L 1156 0 
z
" transform="scale(0.015625)"/>
     </defs>
     <use xlink:href="#SFProText-Regular-53"/>
     <use xlink:href="#SFProText-Regular-70" transform="translate(63.720703 0)"/>
     <use xlink:href="#SFProText-Regular-69" transform="translate(124.755859 0)"/>
     <use xlink:href="#SFProText-Regular-6b" transform="translate(149.462891 0)"/>
     <use xlink:href="#SFProText-Regular-65" transform="translate(203.759766 0)"/>
     <use xlink:href="#SFProText-Regular-20" transform="translate(260.888672 0)"/>
     <use xlink:href="#SFProText-Regular-52" transform="translate(289.013672 0)"/>
     <use xlink:href="#SFProText-Regular-61" transform="translate(354.345703 0)"/>
     <use xlink:href="#SFProText-Regular-73" transform="translate(409.521484 0)"/>
     <use xlink:href="#SFProText-Regular-74" transform="translate(461.865234 0)"/>
     <use xlink:href="#SFProText-Regular-65" transform="translate(498.193359 0)"/>
     <use xlink:href="#SFProText-Regular-72" transform="translate(555.322266 0)"/>
     <use xlink:href="#SFProText-Regular-20" transform="translate(593.408203 0)"/>
     <use xlink:href="#SFProText-Regular-50" transform="translate(621.533203 0)"/>
     <use xlink:href="#SFProText-Regular-6c" transform="translate(685.058594 0)"/>
     <use xlink:href="#SFProText-Regular-6f" transform="translate(710.351562 0)"/>
     <use xlink:href="#SFProText-Regular-74" transform="translate(769.433594 0)"/>
     <use xlink:href="#SFProText-Regular-20" transform="translate(805.761719 0)"/>
     <use xlink:href="#SFProText-Regular-28" transform="translate(833.886719 0)"/>
     <use xlink:href="#SFProText-Regular-53" transform="translate(872.070312 0)"/>
     <use xlink:href="#SFProText-Regular-70" transform="translate(935.791016 0)"/>
     <use xlink:href="#SFProText-Regular-69" transform="translate(996.826172 0)"/>
     <use xlink:href="#SFProText-Regular-6b" transform="translate(1021.533203 0)"/>
     <use xlink:href="#SFProText-Regular-69" transform="translate(1075.830078 0)"/>
     <use xlink:href="#SFProText-Regular-6e" transform="translate(1100.537109 0)"/>
     <use xlink:href="#SFProText-Regular-67" transform="translate(1158.886719 0)"/>
     <use xlink:href="#SFProText-Regular-20" transform="translate(1219.824219 0)"/>
     <use xlink:href="#SFProText-Regular-4e" transform="translate(1247.949219 0)"/>
     <use xlink:href="#SFProText-Regular-65" transform="translate(1322.167969 0)"/>
     <use xlink:href="#SFProText-Regular-75" transform="translate(1379.296875 0)"/>
     <use xlink:href="#SFProText-Regular-72" transform="translate(1437.646484 0)"/>
     <use xlink:href="#SFProText-Regular-61" transform="translate(1475.732422 0)"/>
     <use xlink:href="#SFProText-Regular-6c" transform="translate(1530.908203 0)"/>
     <use xlink:href="#SFProText-Regular-20" transform="translate(1556.201172 0)"/>
     <use xlink:href="#SFProText-Regular-4e" transform="translate(1584.326172 0)"/>
     <use xlink:href="#SFProText-Regular-65" transform="translate(1658.544922 0)"/>
     <use xlink:href="#SFProText-Regular-74" transform="translate(1715.673828 0)"/>
     <use xlink:href="#SFProText-Regular-77" transform="translate(1752.001953 0)"/>
     <use xlink:href="#SFProText-Regular-6f" transform="translate(1829.443359 0)"/>
     <use xlink:href="#SFProText-Regular-72" transform="translate(1888.525391 0)"/>
     <use xlink:href="#SFProText-Regular-6b" transform="translate(1926.611328 0)"/>
     <use xlink:href="#SFProText-Regular-29" transform="translate(1980.908203 0)"/>
    </g>
   </g>
  </g>
 </g>
 <defs>
  <clipPath id="p1cea7419b6">
   <rect x="36.83" y="25.8" width="595.970576" height="222.4"/>
  </clipPath>
 </defs>
</svg>
